<svg xmlns="http://www.w3.org/2000/svg" viewBox="0 0 420.95 477.69">
  <title>Stockpile_Logo</title>
  <g>
    <path d="M15.52,447.78a34.08,34.08,0,0,1-11.25-7.63l6.4-7.47a29.75,29.75,0,0,0,8.75,6.08A23.67,23.67,0,0,0,29.33,441q6.18,0,9.71-2.72A9.54,9.54,0,0,0,41.22,426a10.7,10.7,0,0,0-3.52-3.25,53.18,53.18,0,0,0-6.35-3l-9.71-4.27Q7.46,409.65,7.47,397.28a17.21,17.21,0,0,1,2.93-9.81,20,20,0,0,1,8.16-6.88,26.79,26.79,0,0,1,11.73-2.51,29.57,29.57,0,0,1,11.63,2.35,28.69,28.69,0,0,1,9.49,6.4l-5.65,6.93a22.93,22.93,0,0,0-15.46-6.19q-5.44,0-8.64,2.45a7.9,7.9,0,0,0-3.2,6.61A7.24,7.24,0,0,0,20,401.33a12.06,12.06,0,0,0,3.73,3.09q2.19,1.17,6,2.77l9.71,4.16a26.13,26.13,0,0,1,10.5,7.2q3.68,4.43,3.68,11.57a18.63,18.63,0,0,1-3,10.29,20.7,20.7,0,0,1-8.53,7.36,29.24,29.24,0,0,1-13,2.72A34.66,34.66,0,0,1,15.52,447.78Z" style="fill: #6d435a"/>
    <path d="M64.84,432.26V405.71H57.27V397.6l8.11-.53,1.28-14.4h9v14.4H89.27v8.64H75.62v26.56q0,4.8,1.81,7.2t5.87,2.4a15.51,15.51,0,0,0,5.65-1.28l1.92,8a32.89,32.89,0,0,1-10.24,1.92Q64.84,450.5,64.84,432.26Z" style="fill: #6d435a"/>
    <path d="M107.72,447.19a23.93,23.93,0,0,1-9-9.49,33.22,33.22,0,0,1,0-29.12,24.08,24.08,0,0,1,9-9.49,24.21,24.21,0,0,1,24.42,0,24.09,24.09,0,0,1,9,9.49,33.22,33.22,0,0,1,0,29.12,23.93,23.93,0,0,1-9,9.49,24,24,0,0,1-24.32,0Zm22-10.61q3.62-5.07,3.63-13.38t-3.68-13.44a11.86,11.86,0,0,0-19.52,0q-3.68,5.12-3.68,13.44t3.63,13.38a12,12,0,0,0,19.62,0Z" style="fill: #6d435a"/>
    <path d="M165.73,447.25a22.85,22.85,0,0,1-8.91-9.44,31,31,0,0,1-3.25-14.61,29.06,29.06,0,0,1,3.52-14.61,24.59,24.59,0,0,1,9.39-9.49,25.62,25.62,0,0,1,12.8-3.31,22.34,22.34,0,0,1,15.25,6l-5.33,7a20.89,20.89,0,0,0-4.59-3.09,11,11,0,0,0-4.8-1.07,13.49,13.49,0,0,0-10.93,5.12q-4.21,5.12-4.21,13.44t4.11,13.38a13.14,13.14,0,0,0,10.72,5.07q5.86,0,11.41-4.8l4.48,7.15a24.41,24.41,0,0,1-7.95,4.85,25.59,25.59,0,0,1-9,1.65A25,25,0,0,1,165.73,447.25Z" style="fill: #6d435a"/>
    <path d="M206.15,373.6h10.56v49H217l20.58-25.49h11.84l-17.7,21.12,19.73,31H239.75l-14.18-23.68-8.85,10.24v13.44H206.15Z" style="fill: #6d435a"/>
    <path d="M260.55,397.07h8.85l.85,5.76h.32q8.42-7,16.1-7,9.81,0,15.2,7.15t5.39,19.41a33.86,33.86,0,0,1-3.09,15,24,24,0,0,1-8.21,9.76,19.61,19.61,0,0,1-11.09,3.41q-6.83,0-13.86-5.87l.32,8.85v17H260.55Zm31.89,39.41q3.73-5.06,3.73-14,0-17.7-12.37-17.7-5.76,0-12.48,6.4v25.6q5.65,4.8,11.41,4.8A11.53,11.53,0,0,0,292.43,436.47Z" style="fill: #6d435a"/>
    <path d="M321,385.44a6.25,6.25,0,0,1-1.87-4.69,6.12,6.12,0,0,1,1.87-4.59,7.12,7.12,0,0,1,9.49,0,6.13,6.13,0,0,1,1.87,4.59,6.25,6.25,0,0,1-1.87,4.69,7.12,7.12,0,0,1-9.49,0Zm-.69,11.63H331v52.15H320.27Z" style="fill: #6d435a"/>
    <path d="M350,447.09q-2.56-3.41-2.56-10V373.6h10.77v64.1a4.85,4.85,0,0,0,.75,3,2.23,2.23,0,0,0,1.81,1,8.79,8.79,0,0,0,1.92-.21l1.39,8.11a16.11,16.11,0,0,1-5.87,1Q352.58,450.5,350,447.09Z" style="fill: #6d435a"/>
    <path d="M416.57,426H382.13q.75,7.89,5.39,12a16.38,16.38,0,0,0,11.25,4.11,23,23,0,0,0,12.48-3.95L415,445a31.2,31.2,0,0,1-17.6,5.55,25.46,25.46,0,0,1-12.9-3.31,23.7,23.7,0,0,1-9.12-9.49,32.88,32.88,0,0,1,0-29,24.78,24.78,0,0,1,8.8-9.6,21.74,21.74,0,0,1,11.63-3.36q10.13,0,15.68,6.67t5.55,18A33.91,33.91,0,0,1,416.57,426Zm-9-7.47q0-6.82-3-10.56T396,404.21a12.4,12.4,0,0,0-8.75,3.63q-3.84,3.63-4.91,10.67Z" style="fill: #6d435a"/>
  </g>
  <g>
    <g>
      <path d="M201.8,101.31,152.59,8.06" style="fill: none;stroke: #6d435a;stroke-width: 31.73385802875818px"/>
      <path d="M49.64,295.22,213.19,7.85" style="fill: none;stroke: #6d435a;stroke-width: 31.73385802875818px"/>
    </g>
    <path d="M210.92,62.58,68.66,313.25l81.85,43,123.38.18,81.24-52.56Z" style="fill: #ff6978"/>
    <path d="M150.51,356.51,210.92,216l64.24,140.48Z" style="fill: #352d39"/>
    <path d="M210.92,216.91,307,309.61l-32.82,47Z" style="fill: #6d435a"/>
  </g>
</svg>
